<svg xmlns="http://www.w3.org/2000/svg" xmlns:xlink="http://www.w3.org/1999/xlink" width="108" height="32" viewBox="0 0 108 32">
  <defs>
    <clipPath id="clip-path">
      <rect id="Rectangle_14" data-name="Rectangle 14" width="108" height="32" rx="3" transform="translate(0.457 0)" fill="#7e7e7e"/>
    </clipPath>
    <linearGradient id="linear-gradient" x1="-1.199" y1="2.436" x2="-1.199" y2="1.535" gradientUnits="objectBoundingBox">
      <stop offset="0" stop-color="#1a1a1a" stop-opacity="0.102"/>
      <stop offset="0.123" stop-color="#212121" stop-opacity="0.153"/>
      <stop offset="0.308" stop-color="#353535" stop-opacity="0.227"/>
      <stop offset="0.532" stop-color="#575757" stop-opacity="0.318"/>
      <stop offset="0.783" stop-color="#858585" stop-opacity="0.42"/>
      <stop offset="1" stop-color="#b3b3b3" stop-opacity="0.51"/>
    </linearGradient>
  </defs>
  <g id="Mask_Group_1" data-name="Mask Group 1" transform="translate(-0.457 0)" clip-path="url(#clip-path)">
    <g id="download-166" transform="translate(-0.376 -0.292)">
      <g id="Group_376" data-name="Group 376" transform="translate(0 0)">
        <path id="Path_28" data-name="Path 28" d="M109.231,29.716a3.083,3.083,0,0,1-3.086,3.082H5.139a3.087,3.087,0,0,1-3.091-3.082V5.134A3.091,3.091,0,0,1,5.139,2.048H106.144a3.086,3.086,0,0,1,3.086,3.086V29.716Z" transform="translate(-1.332 -1.331)" fill="#fff"/>
        <path id="Path_29" data-name="Path 29" d="M104.813,32.184H3.807A3.807,3.807,0,0,1,0,28.385V3.8A3.81,3.81,0,0,1,3.807,0H104.812a3.811,3.811,0,0,1,3.807,3.8V28.384a3.807,3.807,0,0,1-3.806,3.8Z" transform="translate(0 0)" fill="#a6a6a6"/>
        <path id="Path_30" data-name="Path 30" d="M109.231,29.716a3.083,3.083,0,0,1-3.086,3.082H5.139a3.087,3.087,0,0,1-3.091-3.082V5.134A3.091,3.091,0,0,1,5.139,2.048H106.144a3.086,3.086,0,0,1,3.086,3.086V29.716Z" transform="translate(-1.332 -1.331)"/>
        <path id="Path_31" data-name="Path 31" d="M43.393,25.222a4.665,4.665,0,0,1,2.223-3.915,4.78,4.78,0,0,0-3.764-2.035c-1.583-.167-3.119.947-3.926.947-.823,0-2.065-.931-3.4-.9A5.012,5.012,0,0,0,30.3,21.888c-1.824,3.157-.464,7.8,1.284,10.349.874,1.251,1.9,2.645,3.233,2.6,1.308-.053,1.8-.833,3.375-.833s2.023.833,3.387.8c1.4-.022,2.288-1.256,3.132-2.517a10.315,10.315,0,0,0,1.432-2.916A4.514,4.514,0,0,1,43.393,25.222Zm-2.576-7.628A4.591,4.591,0,0,0,41.869,14.3a4.679,4.679,0,0,0-3.025,1.565,4.369,4.369,0,0,0-1.079,3.169,3.865,3.865,0,0,0,3.053-1.443Z" transform="translate(-19.139 -9.299)" fill="#fff"/>
        <path id="Path_32" data-name="Path 32" d="M199.064,0h-54.1l21.191,32.184h32.911a3.81,3.81,0,0,0,3.807-3.8V3.8A3.81,3.81,0,0,0,199.064,0Z" transform="translate(-94.251 0)" fill="url(#linear-gradient)"/>
        <path id="Path_33" data-name="Path 33" d="M106.686,35.157h-1.828l-1-3.146h-3.481l-.954,3.146h-1.78l3.45-10.711h2.13Zm-3.132-4.466-.906-2.8q-.144-.429-.54-2.018h-.032q-.159.683-.509,2.018l-.89,2.8Zm11.985.509a4.373,4.373,0,0,1-1.071,3.114,3.14,3.14,0,0,1-2.381,1.017,2.384,2.384,0,0,1-2.206-1.1v4.052h-1.716V29.972q0-1.237-.064-2.538h1.509l.1,1.224h.032a3.054,3.054,0,0,1,4.887-.3,4.27,4.27,0,0,1,.913,2.846Zm-1.749.063a3.183,3.183,0,0,0-.509-1.86,1.759,1.759,0,0,0-1.494-.762,1.785,1.785,0,0,0-1.152.421,1.952,1.952,0,0,0-.675,1.105,2.24,2.24,0,0,0-.08.522v1.289A2.066,2.066,0,0,0,110.4,33.4a1.716,1.716,0,0,0,1.343.58,1.759,1.759,0,0,0,1.509-.747A3.286,3.286,0,0,0,113.791,31.263Zm10.634-.063a4.373,4.373,0,0,1-1.071,3.114,3.141,3.141,0,0,1-2.382,1.017,2.384,2.384,0,0,1-2.206-1.1v4.052H117.05V29.972q0-1.237-.064-2.538H118.5l.1,1.224h.032a3.055,3.055,0,0,1,4.888-.3,4.274,4.274,0,0,1,.913,2.846Zm-1.749.063a3.183,3.183,0,0,0-.51-1.86,1.756,1.756,0,0,0-1.493-.762,1.793,1.793,0,0,0-1.154.421,1.951,1.951,0,0,0-.675,1.105,2.292,2.292,0,0,0-.081.522v1.289a2.073,2.073,0,0,0,.516,1.423,1.72,1.72,0,0,0,1.344.58,1.757,1.757,0,0,0,1.509-.747A3.287,3.287,0,0,0,122.676,31.263Zm11.683.889a2.861,2.861,0,0,1-.952,2.225,4.222,4.222,0,0,1-2.918.938,5.1,5.1,0,0,1-2.774-.667l.4-1.43a4.776,4.776,0,0,0,2.479.668,2.34,2.34,0,0,0,1.509-.437,1.427,1.427,0,0,0,.542-1.167,1.5,1.5,0,0,0-.446-1.1,4.135,4.135,0,0,0-1.478-.826Q127.9,29.31,127.9,27.292a2.709,2.709,0,0,1,.993-2.161,3.929,3.929,0,0,1,2.631-.843,5.2,5.2,0,0,1,2.432.509l-.431,1.4a4.253,4.253,0,0,0-2.058-.493,2.094,2.094,0,0,0-1.42.445,1.273,1.273,0,0,0-.431.971,1.312,1.312,0,0,0,.493,1.049,5.56,5.56,0,0,0,1.557.826,5.278,5.278,0,0,1,2.034,1.3,2.714,2.714,0,0,1,.654,1.858Zm5.689-3.431h-1.892v3.75q0,1.431,1,1.429a3.015,3.015,0,0,0,.762-.08l.048,1.3a3.89,3.89,0,0,1-1.335.19,2.057,2.057,0,0,1-1.59-.621,3.042,3.042,0,0,1-.572-2.082V28.718h-1.127V27.431h1.127V26.017l1.686-.509v1.923h1.892Zm8.519,2.51a4.236,4.236,0,0,1-1.018,2.924,3.628,3.628,0,0,1-2.829,1.176A3.458,3.458,0,0,1,142.01,34.2,4.107,4.107,0,0,1,141,31.361a4.2,4.2,0,0,1,1.041-2.939,3.609,3.609,0,0,1,2.806-1.144,3.531,3.531,0,0,1,2.733,1.128A4.054,4.054,0,0,1,148.567,31.232Zm-1.779.039a3.458,3.458,0,0,0-.46-1.822,1.7,1.7,0,0,0-1.542-.92,1.724,1.724,0,0,0-1.574.92,3.515,3.515,0,0,0-.46,1.854,3.448,3.448,0,0,0,.46,1.823,1.76,1.76,0,0,0,3.1-.015,3.471,3.471,0,0,0,.474-1.84Zm7.36-2.328a2.987,2.987,0,0,0-.541-.047,1.62,1.62,0,0,0-1.4.684,2.576,2.576,0,0,0-.428,1.525v4.052h-1.716V29.866q0-1.216-.05-2.431h1.495l.063,1.478h.047a2.649,2.649,0,0,1,.858-1.224,2.076,2.076,0,0,1,1.241-.414,2.756,2.756,0,0,1,.429.031Zm7.676,1.987a4.023,4.023,0,0,1-.063.778h-5.149a2.239,2.239,0,0,0,.747,1.75,2.555,2.555,0,0,0,1.684.539,5.7,5.7,0,0,0,2.083-.365l.269,1.19a6.443,6.443,0,0,1-2.59.477,3.755,3.755,0,0,1-2.822-1.056,3.9,3.9,0,0,1-1.025-2.836,4.423,4.423,0,0,1,.955-2.907,3.29,3.29,0,0,1,2.7-1.239,2.879,2.879,0,0,1,2.529,1.239A4.167,4.167,0,0,1,161.824,30.93Zm-1.637-.445a2.322,2.322,0,0,0-.333-1.319,1.5,1.5,0,0,0-1.367-.716,1.627,1.627,0,0,0-1.366.7,2.563,2.563,0,0,0-.508,1.334l3.574,0ZM99.88,20.66a10.962,10.962,0,0,1-1.234-.063V15.419a9.346,9.346,0,0,1,1.453-.109c1.968,0,2.875.968,2.875,2.546C102.974,19.676,101.9,20.66,99.88,20.66Zm.288-4.686a3.444,3.444,0,0,0-.679.055v3.936a4.456,4.456,0,0,0,.57.023,1.865,1.865,0,0,0,2.024-2.109A1.718,1.718,0,0,0,100.169,15.973ZM105.8,20.7a1.807,1.807,0,0,1-1.828-1.952,1.849,1.849,0,0,1,1.891-2.007,1.792,1.792,0,0,1,1.828,1.945A1.86,1.86,0,0,1,105.8,20.7Zm.032-3.343c-.609,0-1,.57-1,1.367,0,.781.4,1.351.992,1.351s.992-.609.992-1.367-.39-1.35-.984-1.35Zm8.185-.538-1.187,3.8h-.774l-.492-1.648a12.489,12.489,0,0,1-.305-1.226h-.016a8.217,8.217,0,0,1-.3,1.226l-.523,1.648h-.782l-1.117-3.8h.867l.43,1.8q.152.645.258,1.218h.016c.062-.32.163-.719.312-1.21l.539-1.812h.687l.516,1.773c.125.43.226.851.305,1.25h.023a10.924,10.924,0,0,1,.258-1.25l.461-1.773h.828Zm4.371,3.8h-.844V18.434c0-.671-.258-1.008-.766-1.008a.876.876,0,0,0-.844.93v2.258h-.844V17.9c0-.336-.008-.7-.031-1.086h.742l.039.586h.023a1.364,1.364,0,0,1,1.2-.663c.8,0,1.32.609,1.32,1.6v2.273Zm2.327,0h-.844V15.076h.844Zm3.076.086a1.807,1.807,0,0,1-1.828-1.952,1.849,1.849,0,0,1,1.89-2.007,1.792,1.792,0,0,1,1.828,1.945A1.859,1.859,0,0,1,123.79,20.7Zm.031-3.343c-.609,0-1,.57-1,1.367,0,.781.4,1.351.991,1.351s.992-.609.992-1.367S124.415,17.356,123.821,17.356Zm5.185,3.257-.061-.437h-.023a1.3,1.3,0,0,1-1.11.523,1.1,1.1,0,0,1-1.163-1.117c0-.937.812-1.421,2.219-1.421v-.07c0-.5-.265-.75-.788-.75a1.777,1.777,0,0,0-.992.282l-.171-.555a2.427,2.427,0,0,1,1.3-.328c.992,0,1.493.523,1.493,1.57v1.4a5.731,5.731,0,0,0,.055.906Zm-.116-1.891c-.937,0-1.407.227-1.407.765a.538.538,0,0,0,.579.593.808.808,0,0,0,.828-.773Zm4.919,1.891L133.77,20h-.023a1.273,1.273,0,0,1-1.219.7,1.73,1.73,0,0,1-1.593-1.937,1.8,1.8,0,0,1,1.662-2.023,1.141,1.141,0,0,1,1.071.516h.017V15.076h.844V19.59c0,.367.009.711.031,1.023Zm-.125-2.233a.918.918,0,0,0-.889-.984c-.626,0-1.008.555-1.008,1.335,0,.765.4,1.289.991,1.289a.947.947,0,0,0,.906-1.008V18.38Zm6.2,2.319a1.807,1.807,0,0,1-1.827-1.952,1.849,1.849,0,0,1,1.89-2.007,1.792,1.792,0,0,1,1.828,1.945A1.859,1.859,0,0,1,139.883,20.7Zm.031-3.343c-.609,0-1,.57-1,1.367,0,.781.4,1.351.991,1.351s.992-.609.992-1.367S140.51,17.356,139.915,17.356Zm6.4,3.257h-.844V18.434c0-.671-.258-1.008-.766-1.008a.876.876,0,0,0-.843.93v2.258h-.844V17.9c0-.336-.008-.7-.031-1.086h.742l.039.586h.023a1.363,1.363,0,0,1,1.2-.664c.8,0,1.321.609,1.321,1.6Zm5.676-3.163h-.928v1.843c0,.469.163.7.491.7a1.662,1.662,0,0,0,.374-.039l.023.641a1.869,1.869,0,0,1-.654.094c-.665,0-1.063-.367-1.063-1.328V17.45h-.554v-.633h.554v-.7l.828-.25v.945h.928Zm4.466,3.163h-.843V18.45c0-.679-.257-1.023-.766-1.023a.827.827,0,0,0-.844.9v2.288h-.843V15.076H154v2.28h.017a1.28,1.28,0,0,1,1.142-.617c.8,0,1.294.625,1.294,1.617Zm4.576-1.695H158.5a1.089,1.089,0,0,0,1.2,1.124,2.852,2.852,0,0,0,1.023-.179l.131.586a3.17,3.17,0,0,1-1.274.234,1.762,1.762,0,0,1-1.89-1.913,1.854,1.854,0,0,1,1.8-2.039,1.594,1.594,0,0,1,1.579,1.8,1.625,1.625,0,0,1-.029.382Zm-.774-.6c0-.586-.3-1-.835-1a1,1,0,0,0-.923,1h1.757Z" transform="translate(-63.484 -9.802)" fill="#fff"/>
      </g>
    </g>
  </g>
</svg>
