<svg xmlns="http://www.w3.org/2000/svg" xmlns:xlink="http://www.w3.org/1999/xlink" width="108" height="32" viewBox="0 0 108 32">
  <defs>
    <clipPath id="clip-path">
      <rect id="Rectangle_15" data-name="Rectangle 15" width="108" height="32" rx="5" transform="translate(0.036 0)" fill="#7e7e7e"/>
    </clipPath>
    <linearGradient id="linear-gradient" x1="0.908" y1="1.032" x2="-0.383" y2="0.36" gradientUnits="objectBoundingBox">
      <stop offset="0" stop-color="#00a0ff"/>
      <stop offset="0.007" stop-color="#00a1ff"/>
      <stop offset="0.26" stop-color="#00beff"/>
      <stop offset="0.512" stop-color="#00d2ff"/>
      <stop offset="0.76" stop-color="#00dfff"/>
      <stop offset="1" stop-color="#00e3ff"/>
    </linearGradient>
    <linearGradient id="linear-gradient-2" x1="1.077" y1="0.729" x2="-1.307" y2="0.729" gradientUnits="objectBoundingBox">
      <stop offset="0" stop-color="#ffe000"/>
      <stop offset="0.409" stop-color="#ffbd00"/>
      <stop offset="0.775" stop-color="orange"/>
      <stop offset="1" stop-color="#ff9c00"/>
    </linearGradient>
    <linearGradient id="linear-gradient-3" x1="0.864" y1="-0.023" x2="-0.499" y2="-1.789" gradientUnits="objectBoundingBox">
      <stop offset="0" stop-color="#ff3a44"/>
      <stop offset="1" stop-color="#c31162"/>
    </linearGradient>
    <linearGradient id="linear-gradient-4" x1="-0.186" y1="2.701" x2="0.423" y2="1.909" gradientUnits="objectBoundingBox">
      <stop offset="0" stop-color="#32a071"/>
      <stop offset="0.069" stop-color="#2da771"/>
      <stop offset="0.476" stop-color="#15cf74"/>
      <stop offset="0.801" stop-color="#06e775"/>
      <stop offset="1" stop-color="#00f076"/>
    </linearGradient>
  </defs>
  <g id="Mask_Group_2" data-name="Mask Group 2" transform="translate(-0.036 0)" clip-path="url(#clip-path)">
    <g id="google-168" transform="translate(0.156 -0.292)">
      <path id="Path_34" data-name="Path 34" d="M104.6,32.184H4.023A3.984,3.984,0,0,1,0,28.161V4.023A3.984,3.984,0,0,1,4.023,0H104.6a3.984,3.984,0,0,1,4.023,4.023V28.161A3.984,3.984,0,0,1,104.6,32.184Z"/>
      <path id="Path_35" data-name="Path 35" d="M104.6.644a3.4,3.4,0,0,1,3.379,3.379V28.161A3.4,3.4,0,0,1,104.6,31.54H4.023A3.4,3.4,0,0,1,.644,28.161V4.023A3.4,3.4,0,0,1,4.023.644H104.6m0-.644H4.023A4.035,4.035,0,0,0,0,4.023V28.161a3.984,3.984,0,0,0,4.023,4.023H104.6a3.984,3.984,0,0,0,4.023-4.023V4.023A4.035,4.035,0,0,0,104.6,0Z" fill="#a6a6a6"/>
      <path id="Path_36" data-name="Path 36" d="M116.254,43.112a3.385,3.385,0,0,0-3.46,3.46,3.434,3.434,0,0,0,3.46,3.46,3.385,3.385,0,0,0,3.46-3.46A3.338,3.338,0,0,0,116.254,43.112Zm0,5.471a2.1,2.1,0,0,1,0-4.184,1.949,1.949,0,0,1,1.931,2.092A2,2,0,0,1,116.254,48.583Zm-7.483-5.471a3.385,3.385,0,0,0-3.46,3.46,3.434,3.434,0,0,0,3.46,3.46,3.385,3.385,0,0,0,3.46-3.46A3.338,3.338,0,0,0,108.771,43.112Zm0,5.471a2.1,2.1,0,0,1,0-4.184,1.949,1.949,0,0,1,1.931,2.092A2,2,0,0,1,108.771,48.583ZM99.84,44.158v1.448h3.46a3.042,3.042,0,0,1-.8,1.851A3.561,3.561,0,0,1,99.84,48.5a3.746,3.746,0,0,1-3.782-3.862,3.8,3.8,0,0,1,3.782-3.862,3.989,3.989,0,0,1,2.655,1.046l1.046-1.046a5.156,5.156,0,0,0-3.621-1.448,5.311,5.311,0,1,0,0,10.621,4.63,4.63,0,0,0,3.7-1.529,4.844,4.844,0,0,0,1.287-3.379,3.017,3.017,0,0,0-.08-.885Zm36.529,1.126a3.126,3.126,0,0,0-2.9-2.172,3.241,3.241,0,0,0-3.218,3.46,3.367,3.367,0,0,0,3.379,3.46,3.3,3.3,0,0,0,2.816-1.529l-1.126-.8a1.961,1.961,0,0,1-1.69.966,1.746,1.746,0,0,1-1.69-1.046l4.586-1.931ZM131.7,46.41a1.955,1.955,0,0,1,1.77-2.011,1.423,1.423,0,0,1,1.287.724Zm-3.782,3.3h1.529V39.652h-1.529Zm-2.414-5.874a2.649,2.649,0,0,0-1.851-.8,3.457,3.457,0,0,0-3.3,3.46,3.332,3.332,0,0,0,3.3,3.379,2.31,2.31,0,0,0,1.77-.8h.08v.483a1.829,1.829,0,0,1-3.54.8l-1.287.563a3.319,3.319,0,0,0,3.057,2.011c1.77,0,3.218-1.046,3.218-3.54V43.273h-1.448Zm-1.77,4.747a2.1,2.1,0,0,1,0-4.184,2.108,2.108,0,0,1,0,4.184Zm19.632-8.931h-3.621V49.709h1.529V45.928h2.092a3.142,3.142,0,1,0,0-6.276Zm.08,4.828h-2.172V41.02h2.172a1.767,1.767,0,0,1,1.77,1.69,1.841,1.841,0,0,1-1.77,1.77Zm9.253-1.448a2.7,2.7,0,0,0-2.655,1.529l1.368.563a1.421,1.421,0,0,1,1.368-.724,1.512,1.512,0,0,1,1.609,1.287v.08a3.191,3.191,0,0,0-1.529-.4c-1.448,0-2.9.8-2.9,2.253a2.357,2.357,0,0,0,2.494,2.253,2.264,2.264,0,0,0,1.931-.966h.08v.8h1.448V45.847A3.045,3.045,0,0,0,152.7,43.031Zm-.161,5.552c-.483,0-1.207-.241-1.207-.885,0-.8.885-1.046,1.609-1.046a3.112,3.112,0,0,1,1.368.322A1.874,1.874,0,0,1,152.541,48.583Zm8.448-5.31-1.69,4.345h-.08l-1.77-4.345H155.84l2.655,6.115-1.529,3.379H158.5l4.1-9.494Zm-13.517,6.437H149V39.652h-1.529Z" transform="translate(-61.461 -25.571)" fill="#fff"/>
      <path id="Path_37" data-name="Path 37" d="M23.322,17.25A1.573,1.573,0,0,0,23,18.376V36.158a1.592,1.592,0,0,0,.4,1.126l.08.08,9.977-9.977v-.161Z" transform="translate(-14.954 -11.216)" fill="url(#linear-gradient)"/>
      <path id="Path_38" data-name="Path 38" d="M55.969,43.179l-3.3-3.3v-.241l3.3-3.3.08.08,3.943,2.253a1.228,1.228,0,0,1,0,2.333Z" transform="translate(-34.245 -23.627)" fill="url(#linear-gradient-2)"/>
      <path id="Path_39" data-name="Path 39" d="M37.357,49.379,33.977,46,23.92,56.057c.4.4.966.4,1.69.08l11.747-6.759" transform="translate(-15.552 -29.908)" fill="url(#linear-gradient-3)"/>
      <path id="Path_40" data-name="Path 40" d="M37.357,23.437,25.61,16.758a1.3,1.3,0,0,0-1.69.08l10.057,9.977Z" transform="translate(-15.552 -10.724)" fill="url(#linear-gradient-4)"/>
      <path id="Path_41" data-name="Path 41" d="M37.276,55.43l-11.667,6.6a1.316,1.316,0,0,1-1.609,0l-.08.08.08.08a1.316,1.316,0,0,0,1.609,0Z" transform="translate(-15.552 -36.039)" opacity="0.2"/>
      <path id="Path_42" data-name="Path 42" d="M23.322,55.9A1.573,1.573,0,0,1,23,54.77v.08a1.592,1.592,0,0,0,.4,1.126V55.9h-.08ZM40.7,47.046,36.678,49.3l.08.08L40.7,47.126a1.338,1.338,0,0,0,.8-1.126C41.506,46.4,41.184,46.724,40.7,47.046Z" transform="translate(-14.954 -29.908)" opacity="0.12"/>
      <path id="Path_43" data-name="Path 43" d="M25.011,16.8,40.7,25.734c.483.322.8.644.8,1.046a1.338,1.338,0,0,0-.8-1.126l-15.69-8.931C23.885,16.079,23,16.561,23,17.849v.08C23,16.722,23.885,16.159,25.011,16.8Z" transform="translate(-14.954 -10.688)" fill="#fff" opacity="0.25"/>
      <path id="Path_44" data-name="Path 44" d="M98.334,20.134a2.494,2.494,0,0,1-4.264-1.77,2.494,2.494,0,1,1,4.264,1.77Zm-3.057-.4a1.9,1.9,0,0,0,1.287.563,1.6,1.6,0,0,0,1.287-.563,1.941,1.941,0,0,0,.563-1.368A1.657,1.657,0,0,0,97.852,17a1.9,1.9,0,0,0-1.287-.563A1.6,1.6,0,0,0,95.277,17a1.941,1.941,0,0,0-.563,1.368A1.657,1.657,0,0,0,95.277,19.732Zm4.667,1.046V15.95h.724L103,19.732V15.95h.644v4.828H103l-2.414-3.943v3.943Zm6.437,0h-.644V16.514h-1.368V15.95h3.3v.563H106.3v4.264Zm2.172,0V15.95H110a2.5,2.5,0,0,1,1.77.644,2.3,2.3,0,0,1,.644,1.77,2.651,2.651,0,0,1-.644,1.77,2.3,2.3,0,0,1-1.77.644Zm.563-.563H110a1.7,1.7,0,0,0,1.287-.483,1.893,1.893,0,0,0,.483-1.368A1.893,1.893,0,0,0,111.288,17,1.827,1.827,0,0,0,110,16.514h-.885Zm7-3.7h-2.172v1.529h2.011v.563h-2.011v1.529h2.172v.644H113.3V15.95h2.816Zm4.586-.563-1.77,2.092,1.931,2.736h-.724l-1.609-2.253-.724.885v1.368h-.644V15.95h.644v2.494L119.9,15.95Zm2.333,4.828V15.95h.644v2.092h2.414V15.95h.644v4.828h-.644V18.606h-2.414v2.172Zm7.644-4.264h-2.172v1.529h2.011v.563h-2.011v1.529h2.172v.644h-2.816V15.95h2.816Zm2.575,4.264h-.644V16.514h-1.368V15.95h3.3v.563h-1.368v4.264Zm7.644-.644a2.494,2.494,0,0,1-4.264-1.77,2.494,2.494,0,1,1,4.264,1.77Zm-3.057-.4a1.9,1.9,0,0,0,1.287.563,1.6,1.6,0,0,0,1.287-.563,1.941,1.941,0,0,0,.563-1.368A1.657,1.657,0,0,0,140.415,17a1.9,1.9,0,0,0-1.287-.563A1.6,1.6,0,0,0,137.84,17a1.941,1.941,0,0,0-.563,1.368A1.657,1.657,0,0,0,137.84,19.732Zm5.23,1.046h-.644V15.95h1.609a1.7,1.7,0,0,1,1.046.4,1.3,1.3,0,0,1,.483,1.046,1.416,1.416,0,0,1-.483,1.046,1.7,1.7,0,0,1-1.046.4h-1.046v1.931Zm0-2.575h1.046a.914.914,0,0,0,.644-.241.778.778,0,0,0,0-1.126.914.914,0,0,0-.644-.241H143.07Z" transform="translate(-61.162 -10.318)" fill="#fff" stroke="#fff" stroke-miterlimit="10" stroke-width="0.46"/>
    </g>
  </g>
</svg>
