<svg xmlns="http://www.w3.org/2000/svg" width="43.035" height="43.122" viewBox="0 0 43.035 43.122">
  <g id="help" transform="translate(0)">
    <g id="_17._Info" data-name="17. Info" transform="translate(0)">
      <circle id="Ellipse_614" data-name="Ellipse 614" cx="4.035" cy="4.035" r="4.035" transform="translate(28.914)" fill="#a0bcb8"/>
      <path id="Path_10508" data-name="Path 10508" d="M51.711,22.022,47.9,14.982c0-.054-.061,0-.094-.081a2.017,2.017,0,0,0-1.634-.9H45.5c-.565.457-.37.188-.753.551a5.82,5.82,0,0,1-2.609,1.143,5.554,5.554,0,0,1-2.508-1.076,1.957,1.957,0,0,0-.383-.316,1.614,1.614,0,0,1-.471-.3h-.672a2.017,2.017,0,0,0-1.641.962L34.335,18.29,30.254,15a1.345,1.345,0,0,0-1.775,2.017c7.181,6.812,4.788,4.505,5.278,5a1.56,1.56,0,0,0,2.206-.222L37.8,19.615,37.435,26.1h9.414l-.067-1.19-3.295-.155a2.017,2.017,0,1,1,0-4.035l3.086-.148V20.22l.672,1-3.759.175a1.345,1.345,0,0,0,0,2.69l6.724.316a1.614,1.614,0,0,0,1.5-2.38Z" transform="translate(-9.193 -4.586)" fill="#a0bcb8"/>
      <path id="Path_10509" data-name="Path 10509" d="M50.724,14c-1.97,3.55-1.2,2.158-3.362,6.052L44,14Z" transform="translate(-14.413 -4.586)" fill="#fffeff"/>
      <path id="Path_10510" data-name="Path 10510" d="M49.921,16.817l-1.8,3.234-1.8-3.234L47.453,14H48.8Z" transform="translate(-15.177 -4.586)" fill="#a0bcb8"/>
      <rect id="Rectangle_17751" data-name="Rectangle 17751" width="30.931" height="2.69" transform="translate(12.104 19.5)" fill="#f8cf6d"/>
      <rect id="Rectangle_17752" data-name="Rectangle 17752" width="29.587" height="16.138" transform="translate(13.449 22.19)" fill="#ee7231"/>
      <circle id="Ellipse_615" data-name="Ellipse 615" cx="4.035" cy="4.035" r="4.035" transform="translate(6.052 6.724)" fill="#044a40"/>
      <path id="Path_10511" data-name="Path 10511" d="M23.266,26.69a1.345,1.345,0,0,0-1.856-.41l-3.416,2.192c-2.32-3.638-2.286-3.6-2.387-3.718A2.017,2.017,0,0,0,14.121,24H6.052a2.017,2.017,0,0,0-1.829,1.278L.128,35.532a1.345,1.345,0,1,0,2.434,1.143l3.174-5.79c-.444,9.784-.356,5.615-.356,18.666a1.347,1.347,0,0,0,2.69.168S9.414,38.834,9.414,38.793h1.345c0,.04,1.345,10.927,1.345,10.927a1.347,1.347,0,0,0,2.69-.168c0-13.045.1-8.553-.417-20l1.9,2.266a1.54,1.54,0,0,0,2.152.235l4.539-3.6A1.345,1.345,0,0,0,23.266,26.69Z" transform="translate(0 -7.862)" fill="#044a40"/>
      <path id="Path_10512" data-name="Path 10512" d="M16.724,24c-2.185,4.808-1.4,3.086-3.362,7.4C11.4,27.086,12.185,28.808,10,24Z" transform="translate(-3.276 -7.862)" fill="#fffeff"/>
      <path id="Path_10513" data-name="Path 10513" d="M15.835,27.819,14.207,31.4,12.58,27.819,13.535,24H14.88Z" transform="translate(-4.121 -7.862)" fill="#f77f00"/>
      <rect id="Rectangle_17753" data-name="Rectangle 17753" width="6.724" height="8.069" rx="1" transform="translate(15.466 6.052)" fill="#f8cf6d"/>
      <circle id="Ellipse_616" data-name="Ellipse 616" cx="1.345" cy="1.345" r="1.345" transform="translate(26.897 24.207)" fill="#fffeff"/>
      <path id="Path_10514" data-name="Path 10514" d="M42.035,42.672V49.4a.672.672,0,0,1-.672.672H40.017a.672.672,0,0,1-.672-.672V43.345h-.672A.672.672,0,0,1,38,42.672h0A.672.672,0,0,1,38.672,42h2.69A.672.672,0,0,1,42.035,42.672Z" transform="translate(-12.448 -13.758)" fill="#fffeff"/>
    </g>
  </g>
</svg>
