<svg xmlns="http://www.w3.org/2000/svg" width="41.924" height="41.923" viewBox="0 0 41.924 41.923">
  <g id="growth-graph-4093977" transform="translate(-1.999 -1.967)">
    <rect id="Rectangle_17748" data-name="Rectangle 17748" width="6.987" height="14.673" rx="1" transform="translate(13.878 28.541)" fill="#e6f3ff"/>
    <rect id="Rectangle_17749" data-name="Rectangle 17749" width="6.987" height="24.455" rx="1" transform="translate(25.057 18.759)" fill="#e6f3ff"/>
    <rect id="Rectangle_17750" data-name="Rectangle 17750" width="6.987" height="19.564" rx="1" transform="translate(36.237 23.65)" fill="#e6f3ff"/>
    <path id="Path_10503" data-name="Path 10503" d="M9.987,30.7a.7.7,0,0,0-.7-.7H3.7a.7.7,0,0,0-.7.7V48.865H9.987Z" transform="translate(-0.302 -8.446)" fill="#e6f3ff"/>
    <path id="Path_10504" data-name="Path 10504" d="M3,57v2.1a.7.7,0,0,0,.7.7h5.59a.7.7,0,0,0,.7-.7V57Zm11.18,0v2.1a.7.7,0,0,0,.7.7h5.59a.7.7,0,0,0,.7-.7V57Zm11.18,0v2.1a.7.7,0,0,0,.7.7h5.59a.7.7,0,0,0,.7-.7V57Zm11.18,0v2.1a.7.7,0,0,0,.7.7h5.59a.7.7,0,0,0,.7-.7V57Z" transform="translate(-0.302 -16.58)" fill="#044a40"/>
    <circle id="Ellipse_610" data-name="Ellipse 610" cx="3.494" cy="3.494" r="3.494" transform="translate(2.698 8.279)" fill="#044a40"/>
    <circle id="Ellipse_611" data-name="Ellipse 611" cx="3.494" cy="3.494" r="3.494" transform="translate(13.878 13.868)" fill="#044a40"/>
    <circle id="Ellipse_612" data-name="Ellipse 612" cx="3.494" cy="3.494" r="3.494" transform="translate(25.057 2.689)" fill="#044a40"/>
    <circle id="Ellipse_613" data-name="Ellipse 613" cx="3.494" cy="3.494" r="3.494" transform="translate(36.237 10.375)" fill="#044a40"/>
    <path id="Path_10505" data-name="Path 10505" d="M39.731,9.653a4.178,4.178,0,0,0-3.008,1.278L32.35,7.922a4.189,4.189,0,1,0-7.212.663L19.8,13.926a4.218,4.218,0,0,0-5.8.94L10.2,12.975a4.195,4.195,0,1,0-.631,1.247l3.793,1.891a4.19,4.19,0,1,0,7.422-1.2l5.341-5.341a4.217,4.217,0,0,0,5.433-.5l4.373,3.009a4.192,4.192,0,1,0,3.8-2.43ZM6.192,14.544a2.795,2.795,0,1,1,2.8-2.795,2.795,2.795,0,0,1-2.8,2.795Zm11.18,5.59a2.795,2.795,0,1,1,2.8-2.795,2.795,2.795,0,0,1-2.8,2.795Zm11.18-11.18a2.795,2.795,0,1,1,2.8-2.795,2.795,2.795,0,0,1-2.8,2.795Zm11.18,7.686a2.795,2.795,0,1,1,2.8-2.795,2.795,2.795,0,0,1-2.8,2.795Z" transform="translate(0 0)" fill="#a6d5ce"/>
    <path id="Path_10506" data-name="Path 10506" d="M8.7,34.083a.7.7,0,0,1-.7-.7V28.494a.7.7,0,1,1,1.4,0v4.891a.7.7,0,0,1-.7.7Zm0,2.795a.7.7,0,0,1-.7-.7v-.7a.7.7,0,0,1,1.4,0v.7a.7.7,0,0,1-.7.7Zm11.18,4.192a.7.7,0,0,1-.7-.7V35.481a.7.7,0,0,1,1.4,0v4.891a.7.7,0,0,1-.7.7Zm0,2.795a.7.7,0,0,1-.7-.7v-.7a.7.7,0,1,1,1.4,0v.7a.7.7,0,0,1-.7.7Zm11.18-12.577a.7.7,0,0,1-.7-.7V25.7a.7.7,0,0,1,1.4,0V30.59a.7.7,0,0,1-.7.7Zm0,2.795a.7.7,0,0,1-.7-.7v-.7a.7.7,0,1,1,1.4,0v.7a.7.7,0,0,1-.7.7Zm11.18,2.1a.7.7,0,0,1-.7-.7V30.59a.7.7,0,0,1,1.4,0v4.891a.7.7,0,0,1-.7.7Zm0,2.795a.7.7,0,0,1-.7-.7v-.7a.7.7,0,0,1,1.4,0v.7a.7.7,0,0,1-.7.7Z" transform="translate(-1.808 -6.939)" fill="#044a40"/>
    <path id="Path_10507" data-name="Path 10507" d="M3.4,50.82h5.59a1.4,1.4,0,0,0,1.4-1.4V29.16a1.4,1.4,0,0,0-1.4-1.4H3.4A1.4,1.4,0,0,0,2,29.16V49.422A1.4,1.4,0,0,0,3.4,50.82Zm0-21.66h5.59V49.422H3.4ZM20.167,50.82a1.4,1.4,0,0,0,1.4-1.4V36.147a1.4,1.4,0,0,0-1.4-1.4h-5.59a1.4,1.4,0,0,0-1.4,1.4V49.422a1.4,1.4,0,0,0,1.4,1.4Zm-5.59-14.673h5.59V49.422h-5.59ZM31.346,50.82a1.4,1.4,0,0,0,1.4-1.4V26.365a1.4,1.4,0,0,0-1.4-1.4h-5.59a1.4,1.4,0,0,0-1.4,1.4V49.422a1.4,1.4,0,0,0,1.4,1.4Zm-5.59-24.455h5.59V49.422h-5.59Zm16.769,3.494h-5.59a1.4,1.4,0,0,0-1.4,1.4V49.422a1.4,1.4,0,0,0,1.4,1.4h5.59a1.4,1.4,0,0,0,1.4-1.4V31.256A1.4,1.4,0,0,0,42.526,29.858Zm-5.59,19.564V31.256h5.59V49.422Z" transform="translate(0 -6.929)" fill="#044a40"/>
  </g>
</svg>
