<svg xmlns="http://www.w3.org/2000/svg" width="37.303" height="37.011" viewBox="0 0 37.303 37.011">
  <g id="income-analysis-1551527" transform="translate(-1 -1.188)">
    <path id="Path_10515" data-name="Path 10515" d="M40.808,1.188V34.906A3.291,3.291,0,0,1,37.516,38.2H12.27l-.03-3.79V1.188Z" transform="translate(-2.505)" fill="#d7dce2"/>
    <path id="Path_10516" data-name="Path 10516" d="M36.334,47.8H9.878V47.79A3.2,3.2,0,0,1,7.7,46.846a3.236,3.236,0,0,1-.952-2.291v-.294H33.083v.294A3.251,3.251,0,0,0,36.334,47.8Z" transform="translate(-1.28 -9.599)" fill="#044a40"/>
    <path id="Path_10517" data-name="Path 10517" d="M45.253,48.772V48.8h-.433A2.656,2.656,0,0,0,45.253,48.772Z" transform="translate(-9.766 -10.605)" fill="#4498fb"/>
    <path id="Path_10518" data-name="Path 10518" d="M38.674,37.517H17.243V25.322h.389V37.128H38.674Z" transform="translate(-3.62 -5.379)" fill="#fff"/>
    <path id="Path_10519" data-name="Path 10519" d="M20.295,35.886l-.287-.262L24.3,30.941l3.564,3.666,1.911-3.538,2.361,2.453,3.849-5.906.325.212L32.2,34.143l-2.331-2.422-1.911,3.534-3.646-3.749Z" transform="translate(-4.236 -5.89)" fill="#fff"/>
    <path id="Path_10520" data-name="Path 10520" d="M40.539,29.358l-.392-1.435-1.436.4-.1-.375,1.811-.5.5,1.809Z" transform="translate(-8.381 -5.852)" fill="#fff"/>
    <path id="Path_10521" data-name="Path 10521" d="M33.188,4.917a7.393,7.393,0,1,0,7.391,7.391A7.393,7.393,0,0,0,33.188,4.917Zm0,12.494a5.1,5.1,0,1,1,5.1-5.1A5.1,5.1,0,0,1,33.188,17.411Z" transform="translate(-5.525 -0.831)" fill="#fff"/>
    <path id="Path_10522" data-name="Path 10522" d="M29.58,8.7,27.958,7.082a7.4,7.4,0,0,0,0,10.457l1.622-1.622a5.1,5.1,0,0,1,0-7.213Zm8.707,3.608h2.292a7.389,7.389,0,0,0-7.395-7.395V7.209a5.1,5.1,0,0,1,5.1,5.1Zm-5.1,5.1V19.7a7.39,7.39,0,0,0,5.231-2.164l-1.622-1.622A5.1,5.1,0,0,1,33.184,17.411Z" transform="translate(-5.525 -0.831)" fill="#044a40"/>
    <circle id="Ellipse_617" data-name="Ellipse 617" cx="5.09" cy="5.09" r="5.09" transform="translate(22.57 6.389)" fill="#f77f00"/>
    <circle id="Ellipse_618" data-name="Ellipse 618" cx="4.077" cy="4.077" r="4.077" transform="translate(23.584 7.402)" fill="#fff"/>
    <path id="Path_10523" data-name="Path 10523" d="M34.082,17.477a4.271,4.271,0,1,1,4.27-4.271A4.276,4.276,0,0,1,34.082,17.477Zm0-8.153a3.882,3.882,0,1,0,3.882,3.882A3.887,3.887,0,0,0,34.082,9.324Z" transform="translate(-6.421 -1.727)" fill="#fed932"/>
    <circle id="Ellipse_619" data-name="Ellipse 619" cx="2.999" cy="2.999" r="2.999" transform="translate(24.662 8.48)" fill="#fed932"/>
    <path id="Path_10524" data-name="Path 10524" d="M35.047,14.161a.905.905,0,1,1,.9-.905h-.389a.516.516,0,1,0-.516.517Z" transform="translate(-7.386 -2.488)" fill="#fff"/>
    <path id="Path_10525" data-name="Path 10525" d="M35.047,15.991a.906.906,0,0,1-.905-.905h.389a.516.516,0,1,0,.517-.517V14.18a.905.905,0,0,1,0,1.811Z" transform="translate(-7.386 -2.896)" fill="#fff"/>
    <rect id="Rectangle_17754" data-name="Rectangle 17754" width="0.389" height="0.479" transform="translate(27.467 9.579)" fill="#fff"/>
    <circle id="Ellipse_620" data-name="Ellipse 620" cx="0.362" cy="0.362" r="0.362" transform="translate(29.036 11.117)" fill="#fff"/>
    <circle id="Ellipse_621" data-name="Ellipse 621" cx="0.362" cy="0.362" r="0.362" transform="translate(25.562 11.117)" fill="#fff"/>
    <rect id="Rectangle_17755" data-name="Rectangle 17755" width="0.389" height="0.479" transform="translate(27.467 12.901)" fill="#fff"/>
    <path id="Path_10526" data-name="Path 10526" d="M18.668,7.617l-.922-1.161.3-.242.678.853,1.791-1.449.244.3Z" transform="translate(-3.732 -0.987)" fill="#fff"/>
    <path id="Path_10527" data-name="Path 10527" d="M18.668,11.97l-.922-1.162.3-.241.678.853L20.519,9.97l.244.3Z" transform="translate(-3.732 -1.957)" fill="#fff"/>
    <path id="Path_10528" data-name="Path 10528" d="M18.668,16.323l-.922-1.16.3-.242.678.853,1.791-1.449.244.3Z" transform="translate(-3.732 -2.928)" fill="#fff"/>
    <path id="Path_10529" data-name="Path 10529" d="M18.668,20.677l-.922-1.162.3-.241.678.853,1.791-1.45.244.3Z" transform="translate(-3.732 -3.898)" fill="#fff"/>
    <path id="Path_10530" data-name="Path 10530" d="M9.289,16.04H8.9V7.759H7.044V7.37H9.289Z" transform="translate(-1.347 -1.378)" fill="#17416b"/>
    <path id="Path_10531" data-name="Path 10531" d="M1,5.291V26.634l2.476,4.644,2.477-4.644V5.291Z" transform="translate(0 -0.914)" fill="#d7dce2"/>
    <rect id="Rectangle_17756" data-name="Rectangle 17756" width="2.393" height="3.189" transform="translate(2.268 1.188)" fill="#044a40"/>
  </g>
</svg>
