<svg xmlns="http://www.w3.org/2000/svg" width="46.918" height="39.065" viewBox="0 0 46.918 39.065">
  <g id="diamond-2807245" transform="translate(-3.5 -12)">
    <path id="Path_10558" data-name="Path 10558" d="M24.827,53.1,14.052,28H3.5Z" transform="translate(0 -2.83)" fill="#044a40"/>
    <path id="Path_10559" data-name="Path 10559" d="M40.466,23.524,32.786,12H26.58L18.9,23.524Z" transform="translate(-2.724 0)" fill="#044a40"/>
    <path id="Path_10560" data-name="Path 10560" d="M40.724,28H18.5L29.612,53.9Z" transform="translate(-2.653 -2.83)" fill="#044a40"/>
    <path id="Path_10561" data-name="Path 10561" d="M45.365,28,34.59,53.1,55.917,28Z" transform="translate(-5.499 -2.83)" fill="#044a40"/>
    <path id="Path_10562" data-name="Path 10562" d="M14.208,23.524,21.887,12h-9.17a.823.823,0,0,0-.65.321L3.54,23.524Zm25.517,0h10.7l-8.56-11.2a.823.823,0,0,0-.65-.321h-9.17Z" transform="translate(-0.007 0)" fill="#044a40"/>
  </g>
</svg>
